<?xml version="1.0" encoding="UTF-8"?><svg id="Layer_1" xmlns="http://www.w3.org/2000/svg" viewBox="0 0 544.1 88.38"><defs><style>.cls-1{fill:#fff;}.cls-1,.cls-2{stroke-width:0px;}.cls-2{fill:#f30075;}</style></defs><path class="cls-1" d="m421.38,54.43h-9.43c-.73-.02-1.42-.31-1.94-.82-.52-.51-.82-1.19-.83-1.91v-2.19c.02-.72.32-1.4.83-1.91.52-.51,1.21-.8,1.94-.82h8.06c.74,0,1.44-.29,1.96-.8.52-.51.81-1.21.81-1.93s-.29-1.42-.81-1.93c-.52-.51-1.23-.8-1.96-.8h-8.14c-.73-.02-1.42-.31-1.94-.82-.52-.51-.82-1.19-.83-1.91v-2.19c.02-.72.32-1.4.83-1.91.52-.51,1.21-.8,1.94-.82h9.25c.74,0,1.44-.29,1.96-.8.52-.51.81-1.21.81-1.93s-.29-1.42-.81-1.93c-.52-.51-1.23-.8-1.96-.8h-11.1c-.43,0-.85.13-1.19.4-.34.27-.57.64-.66,1.06l-5.92,27.52v.55c.1.64.45,1.22.96,1.62.51.41,1.16.61,1.81.57h16.27c.74,0,1.44-.29,1.96-.8.52-.51.81-1.21.81-1.93s-.29-1.42-.81-1.93c-.52-.51-1.23-.8-1.96-.8h.07Z"/><path class="cls-1" d="m216.11,28.37h-3.7c-.54,0-1.08.16-1.53.45-.46.29-.82.7-1.06,1.19l-8.14,19.32s-.02.1-.05.13c-.04.03-.08.05-.13.05q-.19,0-.19-.18l-8.14-19.32c-.2-.49-.52-.93-.92-1.28-.74-.55-1.67.18-1.85,1.09l-6.1,27.89c-.05.32.02.64.18.91.22.44.56.81.99,1.07.43.26.91.39,1.41.39h1.11c.72-.04,1.39-.34,1.89-.84.5-.51.79-1.18.81-1.89v-17.86s.02-.09.05-.13c.04-.03.08-.05.13-.05s.1.02.13.05c.03.03.05.08.05.13l7.58,18.77c.2.51.56.94,1.02,1.23.47.29,1.01.44,1.56.41h.74c.54,0,1.08-.16,1.53-.45.46-.29.82-.7,1.06-1.19l7.58-18.59s.02-.1.05-.13c.04-.03.08-.05.13-.05s.1.02.13.05c.03.03.05.08.05.13v17.68c.02.72.32,1.4.83,1.91.52.51,1.21.8,1.94.82h1.11c.73-.02,1.42-.31,1.94-.82.52-.51.82-1.19.83-1.91v-26.24c-.13-.73-.5-1.4-1.05-1.89-.56-.49-1.27-.79-2.02-.84"/><path class="cls-1" d="m300.81,43.13h-8.14c-.69,0-1.35.27-1.83.75-.49.48-.76,1.13-.76,1.81s.27,1.33.76,1.8c.49.48,1.14.75,1.83.75h1.48c1.48,0,2.96,1.28,2.22,2.73-1.11,2.37-3.33,3.65-6.84,3.65-5.18,0-8.32-3.83-8.32-10.39s3.33-10.39,8.32-10.39c1.16-.06,2.31.18,3.35.69,1.04.51,1.92,1.28,2.57,2.23.29.53.71.98,1.23,1.3.52.32,1.11.5,1.73.52h1.66c.37.03.75-.03,1.1-.18.35-.15.65-.37.89-.66.24-.29.4-.63.47-.99.07-.36.06-.74-.05-1.09-1.15-2.39-3-4.39-5.3-5.75-2.3-1.36-4.96-2.02-7.64-1.9-8.51,0-14.98,6.01-14.98,16.22s6.1,16.22,15.17,16.22c8.14,0,13.87-5.1,13.87-13.3v-1.28c0-.36-.06-.72-.2-1.06-.14-.33-.34-.64-.6-.9-.26-.25-.57-.46-.91-.59-.34-.13-.7-.2-1.07-.19"/><path class="cls-1" d="m248.03,47.51h-.56c-.44-.01-.87-.12-1.26-.33-.38-.21-.72-.5-.97-.85-.25-.35-.42-.76-.48-1.19-.06-.43-.02-.86.12-1.27l2.77-8.38s.02-.09.05-.13c.04-.03.08-.05.13-.05s.1.02.13.05c.03.03.05.08.05.13l2.77,8.38c.1.42.1.86.01,1.29-.09.42-.27.83-.54,1.17-.26.35-.6.63-.99.84-.39.2-.82.32-1.26.35m4.7-17.31c-.19-.53-.54-.99-1-1.31-.46-.33-1.02-.5-1.59-.51h-4.81c-.57,0-1.12.18-1.59.51-.46.33-.81.78-1,1.31l-9.25,26.24c-.14.41-.18.85-.12,1.27.06.43.23.84.48,1.19.25.35.58.65.97.85.39.2.82.32,1.25.33h1.48c.57,0,1.12-.18,1.59-.51.46-.33.81-.78,1-1.31l1.11-3.46c.19-.53.54-.99,1-1.31.46-.33,1.02-.5,1.59-.51h7.58c.57,0,1.12.18,1.59.51.46.33.81.78,1,1.31l1.11,3.46c.19.53.54.99,1,1.31.46.33,1.02.5,1.59.51h1.48c.44-.01.87-.12,1.25-.33.39-.21.72-.5.97-.85.25-.35.42-.76.48-1.19.06-.43.02-.86-.11-1.27l-9.06-26.24Z"/><path class="cls-1" d="m322.26,28.37h-1.3c-.73.02-1.42.31-1.94.82-.52.51-.82,1.19-.83,1.91v26.24c.02.72.32,1.4.83,1.91.51.51,1.21.8,1.94.82h1.3c.73-.02,1.42-.31,1.94-.82.52-.51.82-1.19.83-1.91v-26.24c-.05-.71-.36-1.38-.86-1.88-.51-.5-1.19-.81-1.91-.85"/><path class="cls-1" d="m354.62,33.84c1.25-.03,2.48.25,3.58.83,1.1.58,2.03,1.42,2.71,2.46.24.63.67,1.18,1.23,1.57.56.39,1.23.6,1.92.61h1.29c.37.03.75-.03,1.1-.18.35-.15.65-.37.89-.66.24-.29.4-.63.47-.99s.06-.74-.05-1.09c-1.85-5.47-6.84-8.57-13.32-8.57-8.51,0-14.98,5.83-14.98,16.22s6.29,16.22,14.98,16.22c6.84,0,11.47-3.65,13.13-8.2.11-.35.12-.73.05-1.09-.07-.36-.24-.7-.47-.99s-.54-.51-.89-.66c-.34-.15-.72-.21-1.1-.18h-1.48c-.67.06-1.32.29-1.87.68-.55.38-.99.91-1.27,1.51-.62,1.04-1.51,1.9-2.59,2.48-1.08.58-2.29.85-3.52.8-4.81,0-8.14-3.65-8.14-10.39s3.33-10.39,8.32-10.39"/><path class="cls-1" d="m450.05,54.25h-1.48c-.73-.02-1.42-.31-1.94-.82-.52-.51-.82-1.19-.83-1.91v-14.76c.02-.72.32-1.4.83-1.91.52-.51,1.21-.8,1.94-.82h1.48c6.1,0,9.25,3.1,9.25,10.02s-3.14,10.21-9.25,10.21m.37-25.88h-8.69c-.73.02-1.42.31-1.94.82-.52.51-.82,1.19-.83,1.91v26.24c.02.72.32,1.4.83,1.91.52.51,1.21.8,1.94.82h8.69c9.8,0,15.72-6.01,15.72-15.86s-6.1-15.86-15.72-15.86"/><path class="cls-1" d="m499.42,54.43h-9.43c-.73-.02-1.42-.31-1.94-.82-.52-.51-.82-1.19-.83-1.91v-2.19c.02-.72.32-1.4.83-1.91.52-.51,1.21-.8,1.94-.82h8.14c.74,0,1.44-.29,1.96-.8.52-.51.81-1.21.81-1.93s-.29-1.42-.81-1.93c-.52-.51-1.23-.8-1.96-.8h-8.14c-.73-.02-1.42-.31-1.94-.82-.52-.51-.82-1.19-.83-1.91v-2.19c.02-.72.32-1.4.83-1.91.52-.51,1.21-.8,1.94-.82h9.25c.74,0,1.44-.29,1.96-.8.52-.51.81-1.21.81-1.93s-.29-1.42-.81-1.93c-.52-.51-1.23-.8-1.96-.8h-16.09c-.73.02-1.42.31-1.94.82-.52.51-.82,1.19-.83,1.91v26.24c.02.72.32,1.4.83,1.91.52.51,1.21.8,1.94.82h16.27c.73-.02,1.42-.31,1.94-.82.52-.51.82-1.19.83-1.91,0-.36-.06-.72-.2-1.06-.14-.33-.34-.64-.6-.9-.26-.25-.57-.46-.91-.59-.34-.13-.7-.2-1.07-.19"/><path class="cls-1" d="m541.22,28.37h-1.3c-.73.02-1.42.31-1.94.82-.52.51-.82,1.19-.84,1.91v16.95q0,.18-.18.18h-.18l-12.95-18.59c-.25-.35-.58-.63-.97-.82-.39-.19-.82-.28-1.25-.27h-1.74c-.73.02-1.42.31-1.94.82-.52.51-.82,1.19-.83,1.91v26.24c.02.72.32,1.4.83,1.91.52.51,1.21.8,1.94.82h1.29c.73-.02,1.42-.31,1.94-.82.52-.51.82-1.19.83-1.91v-17.13s.02-.1.05-.13c.04-.03.08-.05.13-.05h.18l13.13,18.59c.25.35.58.63.97.82.39.19.82.28,1.25.27h1.66c.73-.02,1.42-.31,1.94-.82.52-.51.82-1.19.83-1.91v-26.24c-.13-.68-.48-1.3-1-1.76-.52-.46-1.18-.74-1.89-.79"/><path class="cls-2" d="m104.27,22.5l8.62,10.13c.99,1.14,1.86,2.07,2.22,2.61,2.58,2.56,4.02,6.02,4.02,9.63-.24,4.26-3.02,7.16-5.58,10.26l-6.03,7.08-3.15,3.67c-.11.13-.19.28-.21.45-.02.17,0,.34.08.49.07.15.19.28.34.37.15.09.32.13.49.12h31.44c4.8,0,10.85,4.04,10.5,10.16,0,2.78-1.14,5.45-3.13,7.42-2,1.97-4.71,3.08-7.53,3.09h-49.24c-3.24,0-11.95.35-14.39-7.08-.52-1.55-.59-3.22-.2-4.81.71-2.35,1.83-4.56,3.31-6.53,2.48-3.67,5.16-7.34,7.8-10.9,3.41-4.66,6.91-9.17,10.35-13.92.12-.15.19-.35.19-.54s-.07-.39-.19-.54l-12.51-14.68c-.08-.11-.19-.19-.31-.25-.12-.06-.25-.09-.39-.09s-.27.03-.39.09c-.12.06-.23.15-.31.25-3.35,4.46-18.02,24.2-21.15,28.2-3.13,4-10.83,4.22-15.1,0l-19.57-19.36c-.12-.12-.28-.21-.46-.24-.17-.03-.35-.02-.52.05-.16.07-.3.18-.4.33-.1.15-.15.32-.15.49v37.22c.05,2.64-.75,5.23-2.27,7.41-1.52,2.17-3.7,3.83-6.22,4.72-1.61.55-3.33.72-5.02.48-1.69-.24-3.3-.87-4.69-1.84-1.39-.97-2.53-2.26-3.31-3.75-.78-1.49-1.2-3.15-1.2-4.83V10.93c.11-2.41.99-4.73,2.52-6.62,1.52-1.89,3.61-3.26,5.97-3.91,2.02-.53,4.15-.53,6.17.02,2.02.54,3.86,1.6,5.33,3.07l30.08,29.68c.09.09.2.16.32.2.12.04.25.06.38.05.13-.01.25-.05.36-.11.11-.06.21-.15.28-.25L72.79,3.9c.99-1.18,2.23-2.14,3.63-2.8,1.4-.66,2.93-1.01,4.49-1.03h55.59c1.52,0,3.02.33,4.41.95,1.38.62,2.62,1.53,3.62,2.66,1,1.13,1.75,2.46,2.19,3.89.44,1.44.56,2.95.36,4.43-.39,2.58-1.72,4.93-3.74,6.61-2.02,1.69-4.58,2.6-7.23,2.56h-31.13c-.16,0-.31.05-.44.13-.13.08-.24.2-.31.33-.07.14-.11.29-.1.44,0,.15.06.3.15.43Z"/></svg>